/* XPM */
static char * kekcoin16_xpm[] = {
"15 15 183 2",
"  	c None",
". 	c #F5E19C",
"+ 	c #E9D184",
"@ 	c #E2C876",
"# 	c #E8D080",
"$ 	c #F1D46D",
"% 	c #FAEAB1",
"& 	c #E0C673",
"* 	c #D2B44E",
"= 	c #D5B446",
"- 	c #D5B341",
"; 	c #D4B241",
"> 	c #D5B444",
", 	c #D2B041",
"' 	c #D8B43C",
") 	c #E0BF4B",
"! 	c #F6E8B0",
"~ 	c #D6BA5D",
"{ 	c #D6B443",
"] 	c #D7B53B",
"^ 	c #D8B439",
"/ 	c #DCB734",
"( 	c #D8B330",
"_ 	c #D8B53B",
": 	c #D6B33B",
"< 	c #D5B23C",
"[ 	c #CCA931",
"} 	c #D2B348",
"| 	c #FAECC0",
"1 	c #DABF62",
"2 	c #CEA92F",
"3 	c #D4AF2A",
"4 	c #E4C144",
"5 	c #D4B23C",
"6 	c #D1AC2D",
"7 	c #D0AB29",
"8 	c #D2AF39",
"9 	c #E5C348",
"0 	c #D5B032",
"a 	c #CCA72E",
"b 	c #CBA830",
"c 	c #D0B75D",
"d 	c #EBD488",
"e 	c #C5A028",
"f 	c #E1BD3D",
"g 	c #D8B22C",
"h 	c #DDB939",
"i 	c #CAA631",
"j 	c #B6911C",
"k 	c #B48F18",
"l 	c #C4A12D",
"m 	c #DFBC3E",
"n 	c #D6B12B",
"o 	c #DFBC41",
"p 	c #C7A22A",
"q 	c #CEAD39",
"r 	c #D2B24B",
"s 	c #D1AC2F",
"t 	c #DDBB43",
"u 	c #DCBA3D",
"v 	c #CCA727",
"w 	c #C29D25",
"x 	c #AE8915",
"y 	c #A98312",
"z 	c #C09C26",
"A 	c #CBA526",
"B 	c #DAB737",
"C 	c #DCBB43",
"D 	c #D4B23B",
"E 	c #C5A027",
"F 	c #F0D678",
"G 	c #C4A12F",
"H 	c #E2BF44",
"I 	c #C6A32E",
"J 	c #CAA833",
"K 	c #BC9720",
"L 	c #BB941A",
"M 	c #BC971B",
"N 	c #BB941B",
"O 	c #BC961B",
"P 	c #BA951D",
"Q 	c #CAA832",
"R 	c #C4A12B",
"S 	c #E1C046",
"T 	c #C29D28",
"U 	c #E7C54E",
"V 	c #C5A12C",
"W 	c #C6A023",
"X 	c #AA8512",
"Y 	c #AF8A17",
"Z 	c #B48D14",
"` 	c #BD9614",
" .	c #BC9516",
"..	c #B38D12",
"+.	c #B18C18",
"@.	c #A88211",
"#.	c #C29D1F",
"$.	c #DEBB3A",
"%.	c #DFBC40",
"&.	c #C6A12B",
"*.	c #DFBC3D",
"=.	c #C49F22",
"-.	c #AE8814",
";.	c #B38E13",
">.	c #BC9615",
",.	c #B08B18",
"'.	c #AB8513",
").	c #C19C1E",
"!.	c #DCB939",
"~.	c #C5A22D",
"{.	c #D9BA49",
"].	c #C49E26",
"^.	c #E1BE46",
"/.	c #C7A52E",
"(.	c #D0AC36",
"_.	c #BD981F",
":.	c #BC971A",
"<.	c #BA951B",
"[.	c #BA941A",
"}.	c #BC961D",
"|.	c #D0AC35",
"1.	c #C7A32C",
"2.	c #DFBD44",
"3.	c #C39E28",
"4.	c #D2BC6C",
"5.	c #CCA528",
"6.	c #D2AF37",
"7.	c #E2BF46",
"8.	c #DEBB3C",
"9.	c #D0AA27",
"0.	c #C4A127",
"a.	c #AE8816",
"b.	c #A98411",
"c.	c #C19D26",
"d.	c #DEB939",
"e.	c #E1BF46",
"f.	c #D3B03A",
"g.	c #C49F25",
"h.	c #D2B241",
"i.	c #C5A025",
"j.	c #D7B32E",
"k.	c #E0BC3C",
"l.	c #CAA633",
"m.	c #BA941C",
"n.	c #B99319",
"o.	c #C5A12D",
"p.	c #E1BD3F",
"q.	c #D7B22D",
"r.	c #DDBB40",
"s.	c #C49F27",
"t.	c #CCAA38",
"u.	c #CAA62E",
"v.	c #CAA52A",
"w.	c #D2AE30",
"x.	c #E3C147",
"y.	c #D7B43E",
"z.	c #D6B02F",
"A.	c #D4AE2C",
"B.	c #D6B33D",
"C.	c #E4C249",
"D.	c #D2AE31",
"E.	c #C7A32A",
"F.	c #C6A22D",
"G.	c #CFB762",
"H.	c #C0A858",
"I.	c #CEAB34",
"J.	c #D4B139",
"K.	c #D9B63B",
"L.	c #DAB738",
"M.	c #D8B335",
"N.	c #D9B840",
"O.	c #CDAA36",
"P.	c #C3A12C",
"Q.	c #D3B85A",
"R.	c #CAB056",
"S.	c #C3A337",
"T.	c #C3A02F",
"U.	c #C9A733",
"V.	c #C9A633",
"W.	c #C9A732",
"X.	c #C5A22E",
"Y.	c #C5A336",
"Z.	c #CDB14C",
"          . + @ @ # $         ",
"      % & * = - ; > , ' )     ",
"    ! ~ { ] ^ / ( _ : < [ }   ",
"  | 1 2 3 4 5 6 7 8 9 0 a b c ",
"  d e f g h i j k l m n o p q ",
"  r s t u v w x y z A B C D E ",
"F G H I J K L M N O P Q R S T ",
"U V f W X Y Z `  ...+.@.#.$.l ",
"%.&.*.=.-.Y ;.>. ...,.'.).!.~.",
"{.].^./.(._.:.<.[.:.}.|.1.2.3.",
"4.5.6.7.8.9.0.a.b.c.9.d.e.f.g.",
"  h.i.o j.k.l.m.n.o.p.q.r.s.t.",
"    u.v.w.x.y.z.A.B.C.D.E.F.G.",
"    H.G I.J.K.L.M.N.J.O.P.Q.  ",
"      R.S.T.U.V.W.U.X.Y.Z.    "};
