/* XPM */
static char * kekcoin32_xpm[] = {
"31 31 750 2",
"  	c None",
". 	c #FFFFFF",
"+ 	c #FEFEFD",
"@ 	c #F1EFEB",
"# 	c #E0DBD0",
"$ 	c #C1B89D",
"% 	c #AC9E74",
"& 	c #9C8A57",
"* 	c #988349",
"= 	c #9B8548",
"- 	c #9B8852",
"; 	c #A89769",
"> 	c #BEB293",
", 	c #DED7C6",
"' 	c #F0EEE7",
") 	c #FDFDFC",
"! 	c #E9E7E0",
"~ 	c #C5BDA8",
"{ 	c #988553",
"] 	c #987E38",
"^ 	c #A78A3C",
"/ 	c #B09240",
"( 	c #B59742",
"_ 	c #B79843",
": 	c #B4953E",
"< 	c #B3933A",
"[ 	c #AD8C33",
"} 	c #A1812A",
"| 	c #927521",
"1 	c #937C3A",
"2 	c #BDB290",
"3 	c #E4E0D5",
"4 	c #F7F7F4",
"5 	c #C2BAA5",
"6 	c #978651",
"7 	c #A3873C",
"8 	c #BA9C4A",
"9 	c #BC9E4A",
"0 	c #B4943F",
"a 	c #AA8C37",
"b 	c #AB8D38",
"c 	c #A98A35",
"d 	c #A2832E",
"e 	c #A2832D",
"f 	c #AD8B31",
"g 	c #AE8C30",
"h 	c #B18E2D",
"i 	c #AF8A26",
"j 	c #9C7919",
"k 	c #8F742D",
"l 	c #B6AC8F",
"m 	c #F3F2EE",
"n 	c #EEEDE8",
"o 	c #A49673",
"p 	c #9E853E",
"q 	c #BB9E4B",
"r 	c #BD9E4B",
"s 	c #B09140",
"t 	c #A08231",
"u 	c #A88A34",
"v 	c #AB8C37",
"w 	c #AF8F39",
"x 	c #B09036",
"y 	c #AD8C32",
"z 	c #AB8A2F",
"A 	c #AD8A2D",
"B 	c #A68428",
"C 	c #997A23",
"D 	c #A18022",
"E 	c #AF8A23",
"F 	c #AE871A",
"G 	c #947111",
"H 	c #938150",
"I 	c #E2DFD8",
"J 	c #EBE9E4",
"K 	c #9A8A5B",
"L 	c #AB8F42",
"M 	c #BEA04E",
"N 	c #AB8E3B",
"O 	c #A38634",
"P 	c #B19240",
"Q 	c #B59641",
"R 	c #B99A42",
"S 	c #B8983F",
"T 	c #B7963B",
"U 	c #B79539",
"V 	c #B79436",
"W 	c #B69131",
"X 	c #B4902D",
"Y 	c #B38E2A",
"Z 	c #AD8824",
"` 	c #A8831E",
" .	c #96751C",
"..	c #9A781B",
"+.	c #AC8415",
"@.	c #9E760C",
"#.	c #867032",
"$.	c #DBD9D3",
"%.	c #EFEEEC",
"&.	c #968556",
"*.	c #B29547",
"=.	c #BC9E4E",
"-.	c #AC8F3E",
";.	c #A78937",
">.	c #B79946",
",.	c #BA9B45",
"'.	c #B69741",
").	c #B3943E",
"!.	c #B9973C",
"~.	c #B69437",
"{.	c #B49234",
"].	c #B3902F",
"^.	c #B38E2C",
"/.	c #B4902A",
"(.	c #AD8924",
"_.	c #AE8820",
":.	c #AF871C",
"<.	c #AB8319",
"[.	c #977517",
"}.	c #8E6E18",
"|.	c #A17B11",
"1.	c #A07808",
"2.	c #7F692E",
"3.	c #DFDEDC",
"4.	c #FAFAFA",
"5.	c #A19472",
"6.	c #AC8F41",
"7.	c #BA9D4B",
"8.	c #9E8130",
"9.	c #AF913F",
"0.	c #BD9E4A",
"a.	c #B99944",
"b.	c #BA9A42",
"c.	c #A98B36",
"d.	c #886A18",
"e.	c #AD8B30",
"f.	c #B99536",
"g.	c #B4902F",
"h.	c #B48E2B",
"i.	c #B79129",
"j.	c #A07D1F",
"k.	c #836513",
"l.	c #AA841C",
"m.	c #AB8418",
"n.	c #A98215",
"o.	c #A98112",
"p.	c #967311",
"q.	c #906D11",
"r.	c #9A740D",
"s.	c #946E04",
"t.	c #83754D",
"u.	c #F4F4F3",
"v.	c #C4BEAF",
"w.	c #9C8137",
"x.	c #BFA14F",
"y.	c #AB8D3A",
"z.	c #BB9C47",
"A.	c #B89943",
"B.	c #B79740",
"C.	c #B8973D",
"D.	c #B19138",
"E.	c #94700D",
"F.	c #8B6809",
"G.	c #A18025",
"H.	c #B6912D",
"I.	c #B69029",
"J.	c #96751B",
"K.	c #755809",
"L.	c #947319",
"M.	c #AE861C",
"N.	c #A88014",
"O.	c #A57E11",
"P.	c #A27B0F",
"Q.	c #A2790B",
"R.	c #95710E",
"S.	c #826514",
"T.	c #957008",
"U.	c #836001",
"V.	c #9F9A8B",
"W.	c #EFEEEB",
"X.	c #8D783D",
"Y.	c #BD9F4C",
"Z.	c #AA8C3A",
"`.	c #A98B38",
" +	c #B7973F",
".+	c #B6963C",
"++	c #B59437",
"@+	c #B69336",
"#+	c #B48F2E",
"$+	c #9B7610",
"%+	c #856304",
"&+	c #96751A",
"*+	c #8B6C16",
"=+	c #785B0A",
"-+	c #9D7B1F",
";+	c #B08921",
">+	c #A57D10",
",+	c #A27B0E",
"'+	c #9E770C",
")+	c #9A730A",
"!+	c #977108",
"~+	c #89680C",
"{+	c #86650C",
"]+	c #906B04",
"^+	c #6F5714",
"/+	c #DADAD8",
"(+	c #B4AC94",
"_+	c #A5893C",
":+	c #BB9C48",
"<+	c #AD8F3C",
"[+	c #B89A44",
"}+	c #B99942",
"|+	c #B7963E",
"1+	c #B6953B",
"2+	c #B59337",
"3+	c #B49134",
"4+	c #B39030",
"5+	c #B79330",
"6+	c #B5912C",
"7+	c #A27C15",
"8+	c #816004",
"9+	c #82620C",
"0+	c #A78424",
"a+	c #B18A1E",
"b+	c #A98111",
"c+	c #A37C0F",
"d+	c #A27A0D",
"e+	c #9E760B",
"f+	c #9A7409",
"g+	c #957009",
"h+	c #936D07",
"i+	c #8F6A06",
"j+	c #806210",
"k+	c #85640A",
"l+	c #805E01",
"m+	c #8B846F",
"n+	c #F2F1EE",
"o+	c #96844F",
"p+	c #A68834",
"q+	c #AE903A",
"r+	c #BC9C44",
"s+	c #B8973E",
"t+	c #B6953A",
"u+	c #B69334",
"v+	c #B59230",
"w+	c #AE8B2B",
"x+	c #846615",
"y+	c #846612",
"z+	c #826412",
"A+	c #7C5C05",
"B+	c #846409",
"C+	c #795B0A",
"D+	c #80610D",
"E+	c #A0790E",
"F+	c #9F770B",
"G+	c #9A7209",
"H+	c #947008",
"I+	c #916C07",
"J+	c #8F6B07",
"K+	c #8B6704",
"L+	c #82630C",
"M+	c #7A5E11",
"N+	c #836104",
"O+	c #6E5B25",
"P+	c #D7D3C9",
"Q+	c #987E34",
"R+	c #B89942",
"S+	c #A1832E",
"T+	c #B2933D",
"U+	c #AA8B36",
"V+	c #AF8F37",
"W+	c #B79538",
"X+	c #B59233",
"Y+	c #AC8A2C",
"Z+	c #AA8728",
"`+	c #A98625",
" @	c #906F14",
".@	c #967211",
"+@	c #916F11",
"@@	c #957212",
"#@	c #916F10",
"$@	c #8B6A0F",
"%@	c #89680E",
"&@	c #916E12",
"*@	c #9E780D",
"=@	c #926D08",
"-@	c #8F6A08",
";@	c #836106",
">@	c #7B5C08",
",@	c #826108",
"'@	c #785B0E",
")@	c #7E5E07",
"!@	c #6E5306",
"~@	c #BCB197",
"{@	c #A88A39",
"]@	c #AF9039",
"^@	c #A98932",
"/@	c #B6963E",
"(@	c #8E6D18",
"_@	c #8D6A0E",
":@	c #B18E2F",
"<@	c #B89432",
"[@	c #876817",
"}@	c #896910",
"|@	c #B18B23",
"1@	c #A78322",
"2@	c #AC8620",
"3@	c #AF881D",
"4@	c #A47F18",
"5@	c #A27D16",
"6@	c #A88114",
"7@	c #A07A11",
"8@	c #97730F",
"9@	c #936E09",
"0@	c #674F0A",
"a@	c #7E5F0A",
"b@	c #926D06",
"c@	c #816006",
"d@	c #614A0C",
"e@	c #795F19",
"f@	c #816108",
"g@	c #7A5C0A",
"h@	c #765A0D",
"i@	c #765806",
"j@	c #A39367",
"k@	c #B1923C",
"l@	c #B08F36",
"m@	c #B8963A",
"n@	c #B18D2E",
"o@	c #937010",
"p@	c #B48F2C",
"q@	c #876811",
"r@	c #93700B",
"s@	c #AA8520",
"t@	c #775B0C",
"u@	c #9F7A13",
"v@	c #AC8213",
"w@	c #7B5E0B",
"x@	c #88670B",
"y@	c #A57C0B",
"z@	c #84630A",
"A@	c #715409",
"B@	c #8F6B09",
"C@	c #684F0B",
"D@	c #87650A",
"E@	c #896606",
"F@	c #5F4909",
"G@	c #8A6A11",
"H@	c #7A5C04",
"I@	c #785B0C",
"J@	c #715812",
"K@	c #775907",
"L@	c #95824B",
"M@	c #B4943B",
"N@	c #A8872F",
"O@	c #B08F33",
"P@	c #B59335",
"Q@	c #B79434",
"R@	c #A68323",
"S@	c #876303",
"T@	c #987515",
"U@	c #846512",
"V@	c #926E0C",
"W@	c #A4801B",
"X@	c #775909",
"Y@	c #A27C12",
"Z@	c #A88011",
"`@	c #775A0B",
" #	c #8C690B",
".#	c #A1780B",
"+#	c #75590B",
"@#	c #8E6B09",
"##	c #674F0C",
"$#	c #80600B",
"%#	c #684E09",
"&#	c #6E5616",
"*#	c #8A6B15",
"=#	c #795B05",
"-#	c #775A08",
";#	c #74590B",
">#	c #6F5712",
",#	c #75580B",
"'#	c #937B3A",
")#	c #B49339",
"!#	c #A38229",
"~#	c #AF8D2F",
"{#	c #B49130",
"]#	c #B18E2C",
"^#	c #B5902A",
"/#	c #9B7717",
"(#	c #7F5E04",
"_#	c #7B5B07",
":#	c #926E0D",
"<#	c #A27D17",
"[#	c #775A09",
"}#	c #9E780F",
"|#	c #A37B0D",
"1#	c #775A0C",
"2#	c #8A680B",
"3#	c #9B7308",
"4#	c #7A5C08",
"5#	c #896708",
"6#	c #674E0C",
"7#	c #69510D",
"8#	c #664F10",
"9#	c #876917",
"0#	c #7C5D07",
"a#	c #765907",
"b#	c #745809",
"c#	c #72580B",
"d#	c #6F5610",
"e#	c #73570D",
"f#	c #967D39",
"g#	c #B39236",
"h#	c #AE8A2A",
"i#	c #B38F2B",
"j#	c #B18C26",
"k#	c #B58F24",
"l#	c #896A14",
"m#	c #83630C",
"n#	c #86660C",
"o#	c #8F6B0B",
"p#	c #9F7A14",
"q#	c #75580A",
"r#	c #9B750D",
"s#	c #74580B",
"t#	c #88660B",
"u#	c #967007",
"v#	c #73580C",
"w#	c #866407",
"x#	c #644D0D",
"y#	c #715811",
"z#	c #6C5411",
"A#	c #70560C",
"B#	c #745709",
"C#	c #725609",
"D#	c #71560E",
"E#	c #6C5514",
"F#	c #70560D",
"G#	c #957D40",
"H#	c #B39031",
"I#	c #A98728",
"J#	c #AD8926",
"K#	c #B18B26",
"L#	c #947318",
"M#	c #A78423",
"N#	c #826411",
"O#	c #8A680A",
"P#	c #9D7710",
"Q#	c #6F540A",
"R#	c #97720B",
"S#	c #997309",
"T#	c #6E540B",
"U#	c #83630A",
"V#	c #916D06",
"W#	c #6F550D",
"X#	c #836207",
"Y#	c #614B0E",
"Z#	c #7C5F0D",
"`#	c #71570D",
" $	c #624E14",
".$	c #6E540D",
"+$	c #735709",
"@$	c #70550B",
"#$	c #6E540F",
"$$	c #6A5314",
"%$	c #6F560F",
"&$	c #9B8856",
"*$	c #AE8B29",
"=$	c #A48223",
"-$	c #A58220",
";$	c #B48D22",
">$	c #9B7919",
",$	c #715407",
"'$	c #9C7A1E",
")$	c #AF871A",
"!$	c #785A09",
"~$	c #846308",
"{$	c #80620F",
"]$	c #9B740D",
"^$	c #966F06",
"/$	c #7A5D0D",
"($	c #8D6805",
"_$	c #785B09",
":$	c #7E6111",
"<$	c #7F5F08",
"[$	c #5C470F",
"}$	c #795B07",
"|$	c #665112",
"1$	c #614C17",
"2$	c #6A520D",
"3$	c #6E530C",
"4$	c #6D5412",
"5$	c #685215",
"6$	c #6E5610",
"7$	c #ADA281",
"8$	c #A48121",
"9$	c #9F7C1C",
"0$	c #AC871C",
"a$	c #846714",
"b$	c #94731B",
"c$	c #AC861C",
"d$	c #A57C0D",
"e$	c #83640E",
"f$	c #8D6C11",
"g$	c #9C750B",
"h$	c #936F0B",
"i$	c #8D6A0B",
"j$	c #876506",
"k$	c #856509",
"l$	c #85640B",
"m$	c #7D5E06",
"n$	c #7B5C07",
"o$	c #7F600A",
"p$	c #775908",
"q$	c #6A5212",
"r$	c #7C6011",
"s$	c #755808",
"t$	c #6E540C",
"u$	c #675114",
"v$	c #6D5717",
"w$	c #6C5410",
"x$	c #675113",
"y$	c #6D5413",
"z$	c #CBC6B6",
"A$	c #937218",
"B$	c #AE8720",
"C$	c #987619",
"D$	c #A78217",
"E$	c #A68117",
"F$	c #A98318",
"G$	c #A47C0E",
"H$	c #9F780C",
"I$	c #9C760D",
"J$	c #9C760E",
"K$	c #674E0A",
"L$	c #664D0B",
"M$	c #674E0B",
"N$	c #644C0B",
"O$	c #624B0E",
"P$	c #5F4A0E",
"Q$	c #664E0D",
"R$	c #795B08",
"S$	c #785B0B",
"T$	c #775A0D",
"U$	c #715711",
"V$	c #6B5311",
"W$	c #6A5415",
"X$	c #685112",
"Y$	c #675216",
"Z$	c #EBE9E5",
"`$	c #867030",
" %	c #B2891A",
".%	c #9A7819",
"+%	c #A27C14",
"@%	c #A98010",
"#%	c #A0790C",
"$%	c #9B740A",
"%%	c #977209",
"&%	c #966F07",
"*%	c #8C6807",
"=%	c #7F6210",
"-%	c #876812",
";%	c #836410",
">%	c #6B510E",
",%	c #7F6214",
"'%	c #7D6012",
")%	c #7E6114",
"!%	c #725509",
"~%	c #6F550B",
"{%	c #6C530E",
"]%	c #6B520F",
"^%	c #69510F",
"/%	c #695314",
"(%	c #675217",
"_%	c #695213",
":%	c #6A5A30",
"<%	c #A09578",
"[%	c #9F7810",
"}%	c #977312",
"|%	c #9F770C",
"1%	c #967109",
"2%	c #946E08",
"3%	c #906B07",
"4%	c #8C6806",
"5%	c #8D6905",
"6%	c #846206",
"7%	c #6C5312",
"8%	c #6B5310",
"9%	c #775808",
"0%	c #72560B",
"a%	c #6B530F",
"b%	c #685111",
"c%	c #675011",
"d%	c #634F14",
"e%	c #6B5517",
"f%	c #85806F",
"g%	c #E1DFDB",
"h%	c #806417",
"i%	c #AA7F0E",
"j%	c #937113",
"k%	c #926F10",
"l%	c #9C7409",
"m%	c #977109",
"n%	c #8E6A07",
"o%	c #896607",
"p%	c #7B5C06",
"q%	c #5E480B",
"r%	c #6D5618",
"s%	c #856818",
"t%	c #75580C",
"u%	c #634E13",
"v%	c #614D13",
"w%	c #6C530C",
"x%	c #6F540B",
"y%	c #6A520F",
"z%	c #695210",
"A%	c #675013",
"B%	c #695214",
"C%	c #644F16",
"D%	c #675115",
"E%	c #645425",
"F%	c #D3D3D2",
"G%	c #A49E8C",
"H%	c #9F780D",
"I%	c #8C6B10",
"J%	c #926E09",
"K%	c #916D07",
"L%	c #8A6706",
"M%	c #876406",
"N%	c #7E5E06",
"O%	c #5E480D",
"P%	c #775E1C",
"Q%	c #876916",
"R%	c #70560B",
"S%	c #634E15",
"T%	c #614D15",
"U%	c #6A5210",
"V%	c #675012",
"W%	c #675116",
"X%	c #655117",
"Y%	c #624D14",
"Z%	c #69541B",
"`%	c #908D82",
" &	c #F5F5F4",
".&	c #82734A",
"+&	c #956E04",
"@&	c #946F09",
"#&	c #85650E",
"$&	c #87660A",
"%&	c #896605",
"&&	c #856306",
"*&	c #836206",
"=&	c #765908",
"-&	c #775F1A",
";&	c #856712",
">&	c #765906",
",&	c #735708",
"'&	c #72570A",
")&	c #71560B",
"!&	c #6D540D",
"~&	c #6C5512",
"{&	c #70570F",
"]&	c #685110",
"^&	c #665012",
"/&	c #655017",
"(&	c #5F4B14",
"_&	c #6A551A",
":&	c #726950",
"<&	c #EEEEEF",
"[&	c #DDDCDA",
"}&	c #78642B",
"|&	c #926D03",
"1&	c #8A6709",
"2&	c #7F610E",
"3&	c #82620B",
"4&	c #826106",
"5&	c #7C5E0A",
"6&	c #765807",
"7&	c #6C530F",
"8&	c #665013",
"9&	c #695215",
"0&	c #655015",
"a&	c #614D14",
"b&	c #6B561B",
"c&	c #695D3B",
"d&	c #D2D2D2",
"e&	c #D3D2CE",
"f&	c #76622B",
"g&	c #876402",
"h&	c #856407",
"i&	c #7C5F0E",
"j&	c #7C5D0B",
"k&	c #7C5D08",
"l&	c #785A08",
"m&	c #765808",
"n&	c #72560A",
"o&	c #695110",
"p&	c #685113",
"q&	c #675117",
"r&	c #634E16",
"s&	c #6A551C",
"t&	c #6D603F",
"u&	c #C8C7C5",
"v&	c #D7D5D3",
"w&	c #786A45",
"x&	c #795905",
"y&	c #826105",
"z&	c #7A5C09",
"A&	c #775B0D",
"B&	c #72580F",
"C&	c #74590E",
"D&	c #72570D",
"E&	c #6B530E",
"F&	c #6B5313",
"G&	c #665015",
"H&	c #634F15",
"I&	c #685318",
"J&	c #68551F",
"K&	c #6F664D",
"L&	c #CFCECD",
"M&	c #ECECEB",
"N&	c #9A9482",
"O&	c #6A5419",
"P&	c #785905",
"Q&	c #74580C",
"R&	c #705710",
"S&	c #6E5510",
"T&	c #6C530D",
"U&	c #695113",
"V&	c #644E13",
"W&	c #695317",
"X&	c #6C571D",
"Y&	c #62532C",
"Z&	c #949084",
"`&	c #E8E8E7",
" *	c #D1D0CB",
".*	c #8F8978",
"+*	c #665420",
"@*	c #6C5209",
"#*	c #73570B",
"$*	c #72570E",
"%*	c #6C5412",
"&*	c #6B5413",
"**	c #6B5516",
"=*	c #6D561A",
"-*	c #68541E",
";*	c #625430",
">*	c #888377",
",*	c #CDCCC8",
". . . . . . . . . + @ # $ % & * = - ; > , ' ) . . . . . . . . ",
". . . . . . . . ! ~ { ] ^ / ( _ : < [ } | 1 2 3 . . . . . . . ",
". . . . . . 4 5 6 7 8 9 0 a b c d e f g h i j k l m . . . . . ",
". . . . . n o p q r s t u v w x y z A B C D E F G H I . . . . ",
". . . . J K L M N O P Q R S T U V W X Y Z `  ...+.@.#.$.. . . ",
". . . %.&.*.=.-.;.>.,.'.).!.~.{.].^./.(._.:.<.[.}.|.1.2.3.. . ",
". . 4.5.6.7.8.9.0.a.b.c.d.e.f.g.h.i.j.k.l.m.n.o.p.q.r.s.t.u.. ",
". . v.w.x.t y.z.A.B.C.D.E.F.G.H.I.J.K.L.M.N.O.P.Q.R.S.T.U.V.. ",
". W.X.Y.Z.`.z.A. +.+++@+#+$+%+&+*+=+-+;+N.>+,+'+)+!+~+{+]+^+/+",
". (+_+:+<+[+}+|+1+2+3+4+5+6+7+8+9+0+a+b+c+d+e+f+g+h+i+j+k+l+m+",
"n+o+z.p+q+r+s+t+2+u+v+w+x+y+z+A+B+j+C+D+E+F+G+H+I+J+K+L+M+N+O+",
"P+Q+R+S+T+U+V+W+X+Y+Z+`+ @.@+@@@#@$@%@&@*@=@-@I+J+;@>@,@'@)@!@",
"~@{@]@^@/@(@_@:@<@[@}@|@1@2@3@4@5@6@7@8@9@0@a@b@c@d@e@f@g@h@i@",
"j@k@V+l@m@n@i+o@p@q@r@s@t@u@v@w@x@y@z@A@B@C@D@E@F@e@G@H@I@J@K@",
"L@M@N@O@P@Q@R@S@T@U@V@W@X@Y@Z@`@ #.#a@+#@###$#%#&#*#=#-#;#>#,#",
"'#)#!#~#{#]#^#/#(#_#:#<#[#}#|#1#2#3#4#+#5#6#7#8#9#0#a#b#c#d#e#",
"f#g#!#h#i#j#k#l#m#n#o#p#q#r#F+s#t#u#[#v#w#x#y#z#A#K@B#C#D#E#F#",
"G#H#I#J#K#k#L#[#M#N#O#P#Q#R#S#T#U#V#C#W#X#Y#Z#`# $.$+$@$#$$$%$",
"&$*$=$-$;$>$,$'$)$!$~$r#{$]$^$/$$@($_$:$<$[$h@}$|$1$2$3$4$5$6$",
"7$8$M#9$0$a$b$c$d$e$f$g$h$i$j$k$l$m$n$o$p$q$r$s$t$u$v$w$q$x$y$",
"z$A$B$C$D$E$F$G$H$I$J$B@0@K$L$M$N$O$P$Q$R$S$T$@$t$W#U$V$W$X$Y$",
"Z$`$ %.%+%@%,+#%$%%%&%*%=%-%;%>%>#,%'%)%S$!%~%.${%]%^%/%(%_%:%",
". <%[%6@}%#%|%$%1%2%3%4%5%6%%#X$7%8%-#9%0%@$t${%a%b%c%Y$d%e%f%",
". g%h%i%j%k%l%m%=@n%o%E@p%q%r%s%t%u%v%w%x%.${%y%z%A%B%C%D%E%F%",
". . G%3%H%I%J%K%n%L%M%N%O%P%Q%4#s$R%S%T%.$]%U%b%V%W%X%Y%Z%`%. ",
". .  &.&+&@&#&$&%&&&*&=&-&;&>&,&'&)&!&~&{&]&b%^&D%/&(&_&:&<&. ",
". . . [&}&|&1&2&3&4&N%0#5&6&,&)&~%.${%7&V$c%8&9&0&a&b&c&d&. . ",
". . . . e&f&g&h&i&j&k&l&m&B#n&@$.${%y%o&p&5$q&r&S%s&t&u&. . . ",
". . . . . v&w&x&y&z&A&B&C&D&~%!&E&V$F&/%G&H& $I&J&K&L&. . . . ",
". . . . . . M&N&O&P&4#Q&R&S&T&y%]&U&u$V&V&W&X&Y&Z&`&. . . . . ",
". . . . . . . .  *.*+*@*#*$*{&S&%*&***=*-*;*>*,*. . . . . . . "};
